<?xml version="1.0" encoding="utf-8"?>
<!-- Generator: Adobe Illustrator 26.0.3, SVG Export Plug-In . SVG Version: 6.00 Build 0)  -->
<svg version="1.1" id="Livello_1" xmlns="http://www.w3.org/2000/svg" xmlns:xlink="http://www.w3.org/1999/xlink" x="0px" y="0px"
	 viewBox="0 0 402 398.6" style="enable-background:new 0 0 402 398.6;" xml:space="preserve">
<style type="text/css">
	.st0{display:none;}
	.st1{display:inline;fill:url(#SVGID_1_);}
	.st2{display:inline;fill:#FFFFFF;}
	.st3{fill:#FFFFFF;}
	.st4{fill:#63A5AC;}
</style>
<g class="st0">
	
		<linearGradient id="SVGID_1_" gradientUnits="userSpaceOnUse" x1="11.6999" y1="2247.0015" x2="395.6" y2="2247.0015" gradientTransform="matrix(1 0 0 -1 0 2447.3013)">
		<stop  offset="1" style="stop-color:#E3886B"/>
		<stop  offset="1" style="stop-color:#000000"/>
	</linearGradient>
	<path class="st1" d="M191.7,8.3c8,0,16,0,24,0c6.4,0.8,12.9,1.4,19.2,2.5c36.5,6.2,68.7,21.4,96.2,46.1
		c33.1,29.7,53.8,66.4,61.6,110.3c1.2,7,2,14.1,2.9,21.1c0,8,0,16,0,24c-0.2,1-0.5,1.9-0.6,2.9c-2.3,29.6-10.8,57.4-26.2,82.7
		c-30.5,49.9-74.5,80.6-132.1,91.5c-7,1.3-14,2-21.1,2.9c-8,0-16,0-24,0c-4.7-0.6-9.4-1.1-14-1.7c-38.2-5.5-72-20.8-100.8-46.4
		c-33.3-29.6-54.2-66.4-62.1-110.4c-1.3-7.1-2-14.3-3-21.4c0-8,0-16,0-24c0.6-4.7,1.1-9.4,1.7-14.1c6-41.9,23.7-78.1,53.3-108.2
		c28.7-29.3,63.4-47.6,103.9-54.7C177.6,10,184.6,9.2,191.7,8.3z M254.6,96.1c-0.5-0.2-0.8-0.4-1.2-0.4c-13.9,0.1-27.8-0.6-41.6,0.6
		c-17,1.5-29.2,10.7-34.7,27.2c-2.1,6.4-2.8,13.4-3.3,20.2c-0.5,7.8-0.1,15.7-0.1,24c-7.4,0-14.4,0-21.7,0c0,13.3,0,26.2,0,39.5
		c7.3,0,14.4,0,21.8,0c0,37.2,0,74,0,111c15.5,0,30.7,0,46.3,0c0-37.1,0-74,0-111.3c10.6,0,20.8,0,31.2,0c1.3-13.2,2.7-26,4-39.2
		c-12,0-23.5,0-35.3,0c0-7.2,0-14.1,0-20.9c0-10,2.9-12.8,13-12.8c7.1,0,14.2,0,21.5,0C254.6,121,254.6,108.5,254.6,96.1z"/>
	<path class="st2" d="M11.7,212.3c1,7.2,1.7,14.4,3,21.4c8,43.9,28.8,80.8,62.1,110.4c28.9,25.6,62.6,40.9,100.8,46.4
		c4.7,0.7,9.4,1.2,14,1.7c-60,0-120,0-180,0C11.7,332.3,11.7,272.3,11.7,212.3z"/>
	<path class="st2" d="M215.7,392.3c7-1,14.1-1.6,21.1-2.9c57.6-10.9,101.6-41.6,132.1-91.5c15.5-25.3,24-53.1,26.2-82.7
		c0.1-1,0.4-1.9,0.6-2.9c0,60,0,120,0,180C335.7,392.3,275.7,392.3,215.7,392.3z"/>
	<path class="st2" d="M191.7,8.3c-7,1-14.1,1.7-21.1,2.9C130.1,18.3,95.5,36.7,66.7,66c-29.6,30.2-47.3,66.4-53.3,108.2
		c-0.7,4.7-1.2,9.4-1.7,14.1c0-59.9,0-119.9,0-180C71.7,8.3,131.7,8.3,191.7,8.3z"/>
	<path class="st2" d="M395.7,188.3c-1-7-1.7-14.1-2.9-21.1c-7.8-43.9-28.5-80.6-61.6-110.3C303.7,32.2,271.4,17,235,10.8
		c-6.4-1.1-12.8-1.7-19.2-2.5c60,0,120,0,180,0C395.7,68.3,395.7,128.3,395.7,188.3z"/>
	<path class="st2" d="M254.6,96.1c0,12.4,0,24.9,0,37.8c-7.3,0-14.4,0-21.5,0c-10.1,0-13,2.8-13,12.8c0,6.8,0,13.7,0,20.9
		c11.8,0,23.2,0,35.3,0c-1.4,13.2-2.7,26.1-4,39.2c-10.3,0-20.5,0-31.2,0c0,37.2,0,74.1,0,111.3c-15.6,0-30.8,0-46.3,0
		c0-37,0-73.8,0-111c-7.4,0-14.5,0-21.8,0c0-13.3,0-26.2,0-39.5c7.2,0,14.3,0,21.7,0c0-8.3-0.4-16.2,0.1-24
		c0.5-6.8,1.2-13.8,3.3-20.2c5.4-16.5,17.7-25.7,34.7-27.2c13.8-1.2,27.7-0.5,41.6-0.6C253.8,95.7,254.1,95.9,254.6,96.1z"/>
</g>
<g>
	<path class="st3" d="M203.8,12.8C100.3,12.7,16.3,96.7,16.2,200c-0.1,103.5,83.7,187.6,187.2,187.7
		c103.6,0.2,187.8-83.9,187.8-187.5C391.2,96.8,307.2,12.8,203.8,12.8z"/>
	<path class="st4" d="M203.8,12.8c103.5,0.1,187.4,84.1,187.4,187.5c0,103.6-84.2,187.7-187.8,187.5C99.9,387.6,16.1,303.5,16.2,200
		C16.3,96.7,100.3,12.7,203.8,12.8z M88.2,200.3c-0.1,0-0.2,0-0.3,0c0,14.1-0.1,28.2,0,42.4c0.1,5.4,0.3,10.8,1.1,16
		c3.5,23,14.7,40.6,36.8,50c10.2,4.4,21.1,6.2,32.2,6.2c29.2,0.1,58.5,0.1,87.7,0c6.3,0,12.8-0.4,19-1.4c23.5-4,40.9-15.9,49.7-38.8
		c3.7-9.5,5.2-19.5,5.2-29.7c0-28.9,0.1-57.7,0-86.6c0-5.5-0.3-11-1.1-16.4c-3.7-24-15.6-41.8-38.9-50.9c-9.4-3.7-19.3-5.3-29.3-5.3
		c-31-0.1-62-0.2-93,0c-11.6,0.1-22.9,2.1-33.5,7.1c-23.4,11-33.8,30.8-35.4,55.4C87.3,165.5,88.2,182.9,88.2,200.3z"/>
	<path class="st3" d="M88.2,200.3c0-17.4-0.9-34.8,0.2-52.1c1.5-24.6,11.9-44.4,35.4-55.4c10.6-5,21.9-7,33.5-7.1
		c31-0.2,62-0.1,93,0c10,0,19.9,1.7,29.3,5.3c23.3,9,35.2,26.9,38.9,50.9c0.8,5.4,1.1,10.9,1.1,16.4c0.1,28.9,0.1,57.7,0,86.6
		c0,10.2-1.5,20.2-5.2,29.7c-8.7,22.9-26.2,34.8-49.7,38.8c-6.2,1.1-12.7,1.4-19,1.4c-29.2,0.1-58.5,0.1-87.7,0
		c-11.1,0-21.9-1.8-32.2-6.2c-22.1-9.4-33.3-27-36.8-50c-0.8-5.3-1-10.7-1.1-16c-0.1-14.1,0-28.2,0-42.4
		C88,200.3,88.1,200.3,88.2,200.3z M203.6,107.3c0-0.1,0-0.3,0-0.4c-3,0-6-0.1-9,0c-15.2,0.3-30.5,0.1-45.7,1.2
		c-15.7,1.2-28.3,8.5-34.7,23.6c-2.6,6.2-4.7,13.2-4.8,19.8c-0.5,32.4-0.8,64.8-0.1,97.1c0.6,25.7,15.7,41.6,41.1,43.8
		c14,1.2,28.2,1.1,42.3,1c21.9-0.1,43.8,0,65.6-1.2c17.6-1,30.5-10.2,36.2-27.3c2.2-6.5,3.3-13.7,3.3-20.5
		c0.4-28.6,0.2-57.2,0.1-85.9c0-4.2-0.3-8.5-0.8-12.7c-2.2-18.9-14-32.3-32.5-36.6c-4.8-1.1-9.9-1.8-14.8-1.8
		C234.6,107.2,219.1,107.3,203.6,107.3z"/>
	<path class="st4" d="M203.6,107.3c15.5,0,31-0.1,46.5,0.1c5,0.1,10,0.7,14.8,1.8c18.4,4.3,30.2,17.8,32.5,36.6
		c0.5,4.2,0.7,8.5,0.8,12.7c0.1,28.6,0.2,57.3-0.1,85.9c-0.1,6.9-1.2,14-3.3,20.5c-5.8,17.1-18.7,26.3-36.2,27.3
		c-21.8,1.2-43.7,1.1-65.6,1.2c-14.1,0.1-28.3,0.2-42.3-1c-25.4-2.2-40.5-18.1-41.1-43.8c-0.7-32.4-0.4-64.7,0.1-97.1
		c0.1-6.7,2.1-13.6,4.8-19.8c6.4-15.1,18.9-22.4,34.7-23.6c15.2-1.1,30.5-0.9,45.7-1.2c3-0.1,6,0,9,0
		C203.6,107.1,203.6,107.2,203.6,107.3z M264.6,200.6c0.1-33.9-26.9-61.2-60.6-61.3c-34-0.1-61.2,26.9-61.3,61
		c-0.1,33.7,27,60.8,61,60.9C237.2,261.4,264.5,234.1,264.6,200.6z M264.9,151.8c6.7,0,12.2-5.3,12.2-12s-5.3-12.2-12-12.3
		c-6.9-0.1-12.4,5.4-12.4,12.2C252.8,146.4,258.2,151.7,264.9,151.8z"/>
	<path class="st3" d="M264.6,200.6c-0.1,33.5-27.5,60.7-60.9,60.6c-33.9-0.2-61.1-27.3-61-60.9c0.1-34,27.2-61,61.3-61
		C237.7,139.4,264.7,166.7,264.6,200.6z M243,200.1c-0.1-21.8-17.7-39.3-39.5-39.2s-39.3,17.7-39.2,39.4
		c0.1,21.8,17.7,39.3,39.5,39.2C225.6,239.5,243.1,221.9,243,200.1z"/>
	<path class="st3" d="M264.9,151.8c-6.8,0-12.1-5.3-12.1-12.1s5.5-12.3,12.4-12.2c6.7,0.1,12,5.6,12,12.3
		C277.1,146.4,271.6,151.8,264.9,151.8z"/>
	<path class="st4" d="M243,200.1c0.1,21.7-17.4,39.3-39.2,39.4c-21.7,0.1-39.3-17.4-39.5-39.2c-0.1-21.7,17.4-39.3,39.2-39.4
		C225.3,160.9,242.9,178.3,243,200.1z"/>
</g>
</svg>
