<?xml version="1.0" encoding="utf-8"?>
<!-- Generator: Adobe Illustrator 27.4.0, SVG Export Plug-In . SVG Version: 6.00 Build 0)  -->
<svg version="1.1" id="Livello_1" xmlns="http://www.w3.org/2000/svg" xmlns:xlink="http://www.w3.org/1999/xlink" x="0px" y="0px"
	 viewBox="0 0 1906 716" style="enable-background:new 0 0 1906 716;" xml:space="preserve">
<style type="text/css">
	.st0{fill:#030921;}
</style>
<g>
	<path class="st0" d="M170.8,430.3l35.3,8.8v5.9H85.4v-5.9l35.3-8.8V44.6H58.9c0,16.5-3.3,31.8-10,45.9
		c-6.7,14.1-15.1,26.3-25.3,36.5h-5.9c0.4-5.1,0.8-10.4,1.2-15.9c0.4-4.7,0.8-9.7,1.2-15c0.4-5.3,0.6-10.7,0.6-16.2
		c0-7.5-0.2-14-0.6-19.7c-0.4-5.7-0.8-10.7-1.2-15c-0.4-4.7-0.8-8.8-1.2-12.4h256.2c-0.8,3.5-1.4,7.7-1.8,12.4
		c-0.4,4.3-0.7,9.3-0.9,15c-0.2,5.7-0.3,12.3-0.3,19.7c0,5.5,0.1,10.9,0.3,16.2c0.2,5.3,0.5,10.3,0.9,15c0.4,5.5,1,10.8,1.8,15.9
		H268c-10.2-10.2-18.7-22.4-25.3-36.5c-6.7-14.1-10-29.4-10-45.9h-61.8V430.3z"/>
	<path class="st0" d="M341.6,309.6c0,25.1,1.9,46.1,5.6,63c3.7,16.9,8.6,30.5,14.7,40.9c6.1,10.4,13,17.8,20.6,22.1
		c7.7,4.3,15.6,6.5,23.9,6.5c10.2,0,19.8-2,28.9-5.9c9-3.9,17.1-9.2,24.1-15.9c7.1-6.7,12.9-14.7,17.4-24.1
		c4.5-9.4,7.6-19.6,9.1-30.6h8.8c-1.6,12.6-5,24.2-10.3,35c-5.3,10.8-12.1,20.1-20.3,28c-8.2,7.9-17.8,14-28.6,18.6
		c-10.8,4.5-22.5,6.8-35,6.8c-14.9,0-29.1-3.2-42.4-9.7c-13.4-6.5-25.2-15.9-35.6-28.3c-10.4-12.4-18.7-27.5-24.7-45.3
		c-6.1-17.9-9.1-38.2-9.1-61c0-23.6,2.9-44.4,8.8-62.4c5.9-18.1,13.6-33.1,23.3-45.1c9.6-12,20.8-21.1,33.6-27.4
		c12.8-6.3,26.2-9.4,40.3-9.4s27.6,3.1,40.3,9.4c12.8,6.3,23.9,15.4,33.6,27.4c9.6,12,17.4,27,23.3,45.1c5.9,18.1,8.8,38.9,8.8,62.4
		H341.6z M394.6,174.1c-5.9,0-11.8,1.9-17.7,5.6c-5.9,3.7-11.4,10.3-16.5,19.7c-5.1,9.4-9.3,22.1-12.7,38c-3.3,15.9-5.4,36-6.2,60.4
		h106c-0.8-24.3-2.9-44.5-6.2-60.4c-3.3-15.9-7.6-28.6-12.7-38c-5.1-9.4-10.6-16-16.5-19.7C406.4,176,400.5,174.1,394.6,174.1z"/>
	<path class="st0" d="M580.1,430.3V188.9l-35.3-8.8v-5.9h82.4v35.3c3.9-7.8,9.2-15.1,15.9-21.8c5.5-5.5,12.6-10.6,21.2-15.3
		c8.6-4.7,18.8-7.1,30.6-7.1s22.7,2.2,32.7,6.5c10,4.3,18.7,10.3,26.2,18c7.5,7.7,13.3,16.9,17.4,27.7c4.1,10.8,6.2,22.9,6.2,36.2
		v176.7l35.3,8.8v5.9H697.9v-5.9l32.4-8.8V253.6c0-27.9-4.4-47.6-13.3-59.2c-8.8-11.6-19.1-17.4-30.9-17.4c-9.8,0-18.3,2.8-25.3,8.2
		c-7.1,5.5-13.2,11.6-18.3,18.3c-5.9,7.9-11,16.7-15.3,26.5v200.2l32.4,8.8v5.9H544.8v-5.9L580.1,430.3z"/>
	<path class="st0" d="M906.9,309.6c0,25.1,1.9,46.1,5.6,63c3.7,16.9,8.6,30.5,14.7,40.9c6.1,10.4,13,17.8,20.6,22.1
		c7.7,4.3,15.6,6.5,23.9,6.5c10.2,0,19.8-2,28.9-5.9c9-3.9,17.1-9.2,24.1-15.9c7.1-6.7,12.9-14.7,17.4-24.1
		c4.5-9.4,7.6-19.6,9.1-30.6h8.8c-1.6,12.6-5,24.2-10.3,35c-5.3,10.8-12.1,20.1-20.3,28c-8.2,7.9-17.8,14-28.6,18.6
		c-10.8,4.5-22.5,6.8-35,6.8c-14.9,0-29.1-3.2-42.4-9.7c-13.4-6.5-25.2-15.9-35.6-28.3c-10.4-12.4-18.7-27.5-24.7-45.3
		c-6.1-17.9-9.1-38.2-9.1-61c0-23.6,2.9-44.4,8.8-62.4c5.9-18.1,13.6-33.1,23.3-45.1c9.6-12,20.8-21.1,33.6-27.4
		c12.8-6.3,26.2-9.4,40.3-9.4c14.1,0,27.6,3.1,40.3,9.4c12.8,6.3,23.9,15.4,33.6,27.4c9.6,12,17.4,27,23.3,45.1
		c5.9,18.1,8.8,38.9,8.8,62.4H906.9z M959.9,174.1c-5.9,0-11.8,1.9-17.7,5.6c-5.9,3.7-11.4,10.3-16.5,19.7
		c-5.1,9.4-9.3,22.1-12.7,38c-3.3,15.9-5.4,36-6.2,60.4h106c-0.8-24.3-2.9-44.5-6.2-60.4c-3.3-15.9-7.6-28.6-12.7-38
		c-5.1-9.4-10.6-16-16.5-19.7C971.7,176,965.8,174.1,959.9,174.1z"/>
	<path class="st0" d="M1192.6,430.3l35.3,8.8v5.9h-117.8v-5.9l35.3-8.8V188.9l-35.3-8.8v-5.9h82.4v70.7
		c5.1-14.5,11.2-27.7,18.3-39.5c6.3-10.2,13.9-19.4,23-27.7c9-8.2,19.8-12.4,32.4-12.4c4.3,0,8.4,0.3,12.4,0.9
		c3.9,0.6,7.5,1.3,10.6,2.1c3.5,1.2,6.7,2.2,9.4,2.9l-17.7,44.2c-2.4-1.2-4.9-2.5-7.7-4.1c-2.4-1.2-5.2-2.3-8.5-3.2
		c-3.3-1-6.8-1.5-10.3-1.5c-10.2,0-19.2,2.8-27.1,8.2c-7.9,5.5-14.3,11.6-19.4,18.3c-6.3,7.9-11.4,16.7-15.3,26.5V430.3z"/>
	<path class="st0" d="M1357.4,430.3V188.9l-35.3-8.8v-5.9h82.4v256.2l35.3,8.8v5.9h-117.8v-5.9L1357.4,430.3z M1407.5,106.4
		c0,7.5-3,14.2-9.1,20.3c-6.1,6.1-12.9,9.1-20.3,9.1c-7.5,0-14.2-3-20.3-9.1c-6.1-6.1-9.1-12.9-9.1-20.3c0-7.5,3-14.2,9.1-20.3
		c6.1-6.1,12.9-9.1,20.3-9.1c7.5,0,14.2,3,20.3,9.1C1404.5,92.2,1407.5,99,1407.5,106.4z"/>
	<path class="st0" d="M1666.6,82.9c0,6.7-1.1,12.7-3.2,18c-2.2,5.3-4.6,9.9-7.4,13.8c-3.1,4.3-6.5,8.4-10,12.4l-44.2-17.7
		c3.5-3.9,6.9-8,10-12.4c2.7-3.9,5.2-8.5,7.4-13.8c2.2-5.3,3.2-11.3,3.2-18c0-10.2-2.7-18.2-8-23.9c-5.3-5.7-12.5-8.5-21.5-8.5
		c-4.3,0-8.4,1.1-12.4,3.2c-3.9,2.2-7.4,5.9-10.3,11.2c-2.9,5.3-5.3,12.5-7.1,21.5c-1.8,9-2.7,20.6-2.7,34.7v70.7h82.4v11.8h-82.4
		v244.4l35.3,8.8v5.9h-117.8v-5.9l35.3-8.8V185.9h-35.3v-11.8h35.3v-70.7c0-23.6,7.4-42.7,22.1-57.4S1569.5,24,1593,24
		c11,0,21,1.7,30,5c9,3.3,16.8,7.8,23.3,13.3c6.5,5.5,11.5,11.8,15,18.8C1664.9,68.1,1666.6,75.4,1666.6,82.9z"/>
	<path class="st0" d="M1716.7,309.6c0,25.1,1.9,46.1,5.6,63c3.7,16.9,8.6,30.5,14.7,40.9c6.1,10.4,13,17.8,20.6,22.1
		c7.7,4.3,15.6,6.5,23.9,6.5c10.2,0,19.8-2,28.9-5.9c9-3.9,17.1-9.2,24.1-15.9c7.1-6.7,12.9-14.7,17.4-24.1
		c4.5-9.4,7.6-19.6,9.1-30.6h8.8c-1.6,12.6-5,24.2-10.3,35c-5.3,10.8-12.1,20.1-20.3,28c-8.2,7.9-17.8,14-28.6,18.6
		c-10.8,4.5-22.5,6.8-35,6.8c-14.9,0-29.1-3.2-42.4-9.7c-13.4-6.5-25.2-15.9-35.6-28.3c-10.4-12.4-18.7-27.5-24.7-45.3
		c-6.1-17.9-9.1-38.2-9.1-61c0-23.6,2.9-44.4,8.8-62.4c5.9-18.1,13.6-33.1,23.3-45.1c9.6-12,20.8-21.1,33.6-27.4
		c12.8-6.3,26.2-9.4,40.3-9.4c14.1,0,27.6,3.1,40.3,9.4c12.8,6.3,23.9,15.4,33.6,27.4c9.6,12,17.4,27,23.3,45.1
		c5.9,18.1,8.8,38.9,8.8,62.4H1716.7z M1769.7,174.1c-5.9,0-11.8,1.9-17.7,5.6c-5.9,3.7-11.4,10.3-16.5,19.7
		c-5.1,9.4-9.3,22.1-12.7,38c-3.3,15.9-5.4,36-6.2,60.4h106c-0.8-24.3-2.9-44.5-6.2-60.4c-3.3-15.9-7.6-28.6-12.7-38
		c-5.1-9.4-10.6-16-16.5-19.7C1781.5,176,1775.6,174.1,1769.7,174.1z"/>
</g>
<g>
	<path class="st0" d="M166,681c0-6.5,1.3-12.5,3.9-18.1c2.6-5.6,6-10.4,10-14.4h2.3c-0.3,2-0.5,4.1-0.7,6.3c-0.2,1.9-0.3,3.9-0.3,6
		c-0.1,2.2-0.1,4.3-0.1,6.3c0,2.9,0,5.5,0.1,7.8c0.1,2.2,0.2,4.2,0.3,5.9c0.2,1.9,0.4,3.5,0.7,4.9H85.8v-2.3l13.9-3.5v-151
		l-13.9-3.5V523h94.1c-0.3,1.4-0.5,3-0.7,4.9c-0.2,1.7-0.3,3.7-0.3,5.9c-0.1,2.2-0.1,4.8-0.1,7.8c0,2.2,0,4.3,0.1,6.4
		c0.1,2.1,0.2,4.1,0.3,5.9c0.2,2.2,0.4,4.3,0.7,6.3h-2.3c-4-4-7.4-8.8-10-14.4c-2.6-5.6-3.9-11.6-3.9-18.1h-44.1v69.7h22.1
		l10.5-20.9h2.3v46.5H152L141.6,602h-22.1v79H166z"/>
	<path class="st0" d="M311.4,609.9L274,528.8l-13.9-3.5V523H310v2.3l-13.9,3.5l26.7,58.1l27.9-55.8l-15.1-5.8V523h34.8v2.3
		l-15.1,5.8l-30.2,60.6l40.7,88.1l13.9,3.5v2.3h-49.9v-2.3l13.9-3.5l-30.2-65.3l-31.4,63l15.1,5.8v2.3h-34.8v-2.3l15.1-5.8
		L311.4,609.9z"/>
	<path class="st0" d="M491.2,627.5v52.3l13.9,3.5v2.3h-47.6v-2.3l13.9-3.5v-151l-13.9-3.5V523h41.8c9.6,0,18.2,1.3,25.7,3.9
		c7.5,2.6,13.8,6.3,18.9,10.9c5.1,4.6,9,10.1,11.7,16.5c2.7,6.4,4.1,13.3,4.1,20.9c0,7.6-1.4,14.6-4.1,20.9
		c-2.7,6.4-6.6,11.8-11.7,16.5c-5.1,4.6-11.4,8.3-18.9,10.9c-7.5,2.6-16.1,3.9-25.7,3.9H491.2z M491.2,622.9h8.1
		c12.2,0,21.7-3.7,28.3-11.2c6.7-7.4,10-19.6,10-36.5c0-16.9-3.3-29-10-36.5c-6.7-7.4-16.1-11.2-28.3-11.2h-8.1V622.9z"/>
	<path class="st0" d="M724.7,681c0-6.5,1.3-12.5,3.9-18.1c2.6-5.6,6-10.4,10-14.4h2.3c-0.3,2-0.5,4.1-0.7,6.3
		c-0.2,1.9-0.3,3.9-0.3,6c-0.1,2.2-0.1,4.3-0.1,6.3c0,2.9,0,5.5,0.1,7.8c0.1,2.2,0.2,4.2,0.3,5.9c0.2,1.9,0.4,3.5,0.7,4.9h-96.4
		v-2.3l13.9-3.5v-151l-13.9-3.5V523h94.1c-0.3,1.4-0.5,3-0.7,4.9c-0.2,1.7-0.3,3.7-0.3,5.9c-0.1,2.2-0.1,4.8-0.1,7.8
		c0,2.2,0,4.3,0.1,6.4c0.1,2.1,0.2,4.1,0.3,5.9c0.2,2.2,0.4,4.3,0.7,6.3h-2.3c-4-4-7.4-8.8-10-14.4c-2.6-5.6-3.9-11.6-3.9-18.1
		h-44.1v69.7h22.1l10.5-20.9h2.3v46.5h-2.3L700.3,602h-22.1v79H724.7z"/>
	<path class="st0" d="M874.6,523c9.9,0,18.5,1.1,25.8,3.3c7.3,2.2,13.3,5.1,18.1,8.8c4.8,3.7,8.4,8,10.7,12.9s3.5,10.1,3.5,15.7
		c0,4.5-0.7,8.5-2,12c-1.3,3.5-3,6.6-5.1,9.3c-2.1,2.7-4.5,5-7.3,6.9c-2.8,1.9-5.6,3.4-8.4,4.6c-6.7,2.9-14.2,4.8-22.5,5.6
		c6.8,0.8,13,2.4,18.6,4.9c4.8,2.2,9.3,5.3,13.5,9.5c4.2,4.2,6.7,9.8,7.4,17l4.6,40.7c0.3,2.9,1,5,2.1,6.3c1.1,1.2,2.3,1.9,3.7,1.9
		c0.8,0,1.6-0.3,2.4-0.8c0.8-0.5,1.7-1.2,2.4-2c0.8-0.8,1.5-1.8,2.1-3l2.3,2.3c-0.9,2-2.2,3.8-3.9,5.3c-1.4,1.2-3.2,2.4-5.5,3.5
		c-2.2,1.1-4.9,1.6-8,1.6c-5.3,0-9.6-1.5-12.9-4.5c-3.3-3-5.2-6.5-5.7-10.6l-4.6-40.7c-0.6-5.3-1.6-9.7-3-13.4
		c-1.4-3.6-3.3-6.6-5.7-8.9c-2.4-2.3-5.5-4-9.2-5.1c-3.7-1.1-8.2-1.6-13.5-1.6h-9.3v75.5l13.9,3.5v2.3h-47.6v-2.3l13.9-3.5v-151
		l-13.9-3.5V523H874.6z M910.6,563.7c0-11.6-3.1-20.5-9.3-26.7c-6.2-6.2-15.1-9.3-26.7-9.3h-9.3v72h9.3c11.6,0,20.5-3.1,26.7-9.3
		C907.5,584.2,910.6,575.3,910.6,563.7z"/>
	<path class="st0" d="M1062.7,679.8l13.9,3.5v2.3H1029v-2.3l13.9-3.5v-151l-13.9-3.5V523h47.6v2.3l-13.9,3.5V679.8z"/>
	<path class="st0" d="M1247.4,681c0-6.5,1.3-12.5,3.9-18.1c2.6-5.6,6-10.4,10-14.4h2.3c-0.3,2-0.5,4.1-0.7,6.3
		c-0.2,1.9-0.3,3.9-0.3,6c-0.1,2.2-0.1,4.3-0.1,6.3c0,2.9,0,5.5,0.1,7.8c0.1,2.2,0.2,4.2,0.3,5.9c0.2,1.9,0.4,3.5,0.7,4.9h-96.4
		v-2.3l13.9-3.5v-151l-13.9-3.5V523h94.1c-0.3,1.4-0.5,3-0.7,4.9c-0.2,1.7-0.3,3.7-0.3,5.9c-0.1,2.2-0.1,4.8-0.1,7.8
		c0,2.2,0,4.3,0.1,6.4c0.1,2.1,0.2,4.1,0.3,5.9c0.2,2.2,0.4,4.3,0.7,6.3h-2.3c-4-4-7.4-8.8-10-14.4c-2.6-5.6-3.9-11.6-3.9-18.1H1201
		v69.7h22.1l10.5-20.9h2.3v46.5h-2.3L1223,602H1201v79H1247.4z"/>
	<path class="st0" d="M1450.7,531.1l-15.1-5.8V523h34.8v2.3l-15.1,5.8V688h-3.5l-79-145.2v134.7l15.1,5.8v2.3h-34.8v-2.3l15.1-5.8
		V530l-15.1-4.6V523h31.4l66.2,122V531.1z"/>
	<path class="st0" d="M1615.7,524.2c-4.3,0-8.6,1.2-12.8,3.7c-4.2,2.5-7.9,6.8-11.2,12.9c-3.3,6.1-5.9,14.3-7.9,24.6
		c-2,10.3-3,23.3-3,38.9c0,15.6,1,28.6,3,38.9c2,10.3,4.7,18.5,8.1,24.6c3.4,6.1,7.4,10.4,11.8,12.9c4.5,2.5,9.2,3.7,14.2,3.7
		c4,0,8.1-1.1,12.3-3.3c4.2-2.2,8-5.2,11.5-9.1c3.5-3.9,6.4-8.4,8.8-13.7c2.4-5.3,3.9-10.9,4.5-17h3.5c-0.6,7-2.2,13.4-4.6,19.2
		c-2.5,5.8-5.6,10.8-9.4,15.1c-3.8,4.3-8.2,7.6-13.1,9.9c-5,2.3-10.2,3.5-15.8,3.5c-7.3,0-14.3-1.7-21.1-5.2
		c-6.8-3.5-12.9-8.7-18.2-15.8c-5.3-7-9.6-15.9-12.8-26.5c-3.2-10.6-4.8-23-4.8-37.3c0-14.2,1.6-26.7,4.8-37.3
		c3.2-10.6,7.4-19.4,12.5-26.5c5.2-7,11-12.3,17.5-15.8c6.5-3.5,13.1-5.2,19.7-5.2c3.7,0,7.1,0.6,10.1,1.9c3,1.2,5.6,2.6,7.8,4.2
		c2.5,1.7,4.6,3.6,6.5,5.8c1.2-2.3,2.9-4.5,5-6.6c2.1-2.1,4.3-3.4,6.6-4.1h3.5c-0.3,2.3-0.5,4.6-0.7,7c-0.2,2.2-0.3,4.5-0.3,6.9
		c-0.1,2.4-0.1,4.8-0.1,7.1c0,2.6,0,5.2,0.1,7.8c0.1,2.6,0.2,4.9,0.3,7.1c0.2,2.5,0.4,4.9,0.7,7.2h-3.5
		c-3.6-12.9-8.3-22.7-14.3-29.4C1629.1,527.5,1622.6,524.2,1615.7,524.2z"/>
	<path class="st0" d="M1823.6,681c0-6.5,1.3-12.5,3.9-18.1c2.6-5.6,6-10.4,10-14.4h2.3c-0.3,2-0.5,4.1-0.7,6.3
		c-0.2,1.9-0.3,3.9-0.3,6c-0.1,2.2-0.1,4.3-0.1,6.3c0,2.9,0,5.5,0.1,7.8c0.1,2.2,0.2,4.2,0.3,5.9c0.2,1.9,0.4,3.5,0.7,4.9h-96.4
		v-2.3l13.9-3.5v-151l-13.9-3.5V523h94.1c-0.3,1.4-0.5,3-0.7,4.9c-0.2,1.7-0.3,3.7-0.3,5.9c-0.1,2.2-0.1,4.8-0.1,7.8
		c0,2.2,0,4.3,0.1,6.4c0.1,2.1,0.2,4.1,0.3,5.9c0.2,2.2,0.4,4.3,0.7,6.3h-2.3c-4-4-7.4-8.8-10-14.4c-2.6-5.6-3.9-11.6-3.9-18.1
		h-44.1v69.7h22.1l10.5-20.9h2.3v46.5h-2.3l-10.5-20.9h-22.1v79H1823.6z"/>
</g>
</svg>
