<?xml version="1.0" encoding="utf-8"?>
<!-- Generator: Adobe Illustrator 28.1.0, SVG Export Plug-In . SVG Version: 6.00 Build 0)  -->
<svg version="1.1" id="Livello_1" xmlns="http://www.w3.org/2000/svg" xmlns:xlink="http://www.w3.org/1999/xlink" x="0px" y="0px"
	 viewBox="0 0 1267.9 716" style="enable-background:new 0 0 1267.9 716;" xml:space="preserve">
<style type="text/css">
	.st0{fill:#6B7C87;}
	.st1{fill:#BFD00A;}
	.st2{fill:#00AEB0;}
	.st3{fill:#006BA5;}
	.st4{fill:#915AA0;}
	.st5{opacity:0.3;fill:#915AA0;enable-background:new    ;}
	.st6{opacity:0.3;fill:#BFD00A;enable-background:new    ;}
	.st7{opacity:0.3;fill:#00AEB0;enable-background:new    ;}
	.st8{opacity:0.3;fill:#006BA5;enable-background:new    ;}
	.st9{fill:#F39C60;}
	.st10{fill:#E7481D;}
	.st11{fill:#FDD47F;}
	.st12{opacity:0.3;fill:#FDD47F;enable-background:new    ;}
	.st13{opacity:0.3;fill:#F39C60;enable-background:new    ;}
	.st14{opacity:0.3;fill:#E7481D;enable-background:new    ;}
</style>
<g>
	<path class="st0" d="M210,578.1c0-54.8-44.6-99.4-99.4-99.4s-99.4,44.6-99.4,99.4s44.6,99.4,99.4,99.4c44,0,81.4-28.8,94.4-68.5
		h-39c-10.9,19.5-31.6,32.6-55.4,32.6c-28.8,0-53.1-19.2-60.9-45.5h158.6C209.4,590.2,210,584.2,210,578.1z M49.8,560.1
		c7.8-26.3,32.1-45.5,60.9-45.5s53.1,19.2,60.9,45.5H49.8z"/>
	<path class="st0" d="M840.5,578.1c0-54.8-44.6-99.4-99.4-99.4c-54.8,0-99.4,44.6-99.4,99.4s44.6,99.4,99.4,99.4
		c44,0,81.4-28.8,94.5-68.5h-39c-10.9,19.5-31.6,32.6-55.4,32.6c-28.8,0-53.1-19.2-60.9-45.5h158.6
		C839.9,590.2,840.5,584.2,840.5,578.1z M680.2,560.1c7.8-26.3,32.1-45.5,60.9-45.5c28.8,0,53.1,19.2,60.9,45.5H680.2z"/>
	<path class="st0" d="M322.4,603.1l56.7,56.7c-16,11.1-35.5,17.6-56.4,17.6c-54.8,0-99.4-44.6-99.4-99.4c0-54.8,44.6-99.4,99.4-99.4
		c20.7,0,40,6.4,55.9,17.3l-56.2,56.2l-55.9-55.9c-4.9,3.4-9.5,7.2-13.9,11.5c-4.4,4.4-8.2,9.1-11.6,14l55.9,55.9l-56.2,56.2
		c3.5,5.1,7.4,9.9,11.9,14.4c4.2,4.2,8.7,7.9,13.4,11.2L322.4,603.1z"/>
	<path class="st0" d="M422.1,578.1c0,20.9-6.5,40.3-17.5,56.3l-56.7-56.7l56.3-56.3C415.5,537.4,422.1,557,422.1,578.1z"/>
	<path class="st0" d="M378.6,496l0.1-0.1c5.1,3.5,9.9,7.4,14.4,11.9c4.2,4.2,7.9,8.7,11.2,13.4l-0.1,0.1
		C397.3,511.4,388.6,502.8,378.6,496z"/>
	<path class="st0" d="M404.7,634.5c-3.4,4.9-7.2,9.5-11.5,13.9c-4.4,4.4-9.1,8.2-14,11.6l-0.1-0.1c10-6.9,18.6-15.5,25.5-25.5
		L404.7,634.5z"/>
	<path class="st0" d="M1143.2,676.7c1.6,0.2,3.2,0.3,4.8,0.5C1146.3,677,1144.7,676.9,1143.2,676.7z"/>
	<path class="st0" d="M1162.6,677.1c1.6-0.1,3.2-0.3,4.8-0.5C1165.8,676.9,1164.2,677,1162.6,677.1z"/>
	<path class="st0" d="M1174.4,675.6C1174.4,675.6,1174.4,675.5,1174.4,675.6L1174.4,675.6L1174.4,675.6z"/>
	<path class="st0" d="M1169.8,676.3c1.4-0.2,2.7-0.4,4.1-0.7C1172.5,675.9,1171.2,676.1,1169.8,676.3z"/>
	<path class="st0" d="M1173.9,675.7c0.2,0,0.4-0.1,0.5-0.1C1174.2,675.6,1174,675.6,1173.9,675.7z"/>
	<path class="st0" d="M1174.4,675.5v-75.3l6-6l63.7-60.6c-5.5-10.9-12.9-20.7-21.9-28.9l-67.3,64l-65-65.5
		c-9.1,8-16.8,17.6-22.5,28.4l62.1,62.6l6.6,6.6v74.7c0.2,0,0.3,0.1,0.5,0.1c-45.9-8.8-80.7-49.2-80.7-97.6
		c0-54.8,44.6-99.4,99.4-99.4s99.4,44.6,99.4,99.4C1254.6,626.3,1220.1,666.6,1174.4,675.5z"/>
	<path class="st0" d="M1140.7,676.3c-1.4-0.2-2.7-0.4-4.1-0.7C1137.9,675.9,1139.3,676.1,1140.7,676.3z"/>
	<path class="st0" d="M531.9,478.7c-54.8,0-99.4,44.6-99.4,99.4V708H471v-51.4c16.8,13.1,37.9,20.9,60.9,20.9
		c54.8,0,99.4-44.6,99.4-99.4C631.3,523.3,586.7,478.7,531.9,478.7z M592.8,596c-7.8,26.3-32.1,45.5-60.9,45.5
		c-23.8,0-44.5-13.2-55.4-32.6c0,0-3.5-5.7-5.5-12.9c-4.6-16.7,0-35.9,0-35.9c7.8-26.3,32.1-45.5,60.9-45.5s53.1,19.2,60.9,45.5
		C595.7,572.2,595.6,584.2,592.8,596z"/>
	<path class="st0" d="M953.4,478.7c-53.8,0-97.7,43-99.3,96.4l0,0v100.3h36.2V575.1c0,0,0.6-9.9,2.3-15
		c7.8-26.3,32.1-45.5,60.9-45.5c23.8,0,44.6,13.2,55.4,32.6h39C1034.8,507.5,997.4,478.7,953.4,478.7z"/>
</g>
<g>
	<g>
		<g>
			<path class="st1" d="M431.4,242L325.3,348.1c30.3,21.1,67,33.5,106.6,33.5c39.3,0,75.9-12.3,106-33.1L431.4,242z"/>
			<path class="st2" d="M585.1,88.2L479.2,194.1l106.5,106.5c20.8-30.1,32.9-66.5,32.9-105.8C618.7,155.2,606.3,118.5,585.1,88.2z"
				/>
			<path class="st3" d="M431.4,146.2L537,40.6C507,20.1,470.8,8.1,431.9,8.1c-39.2,0-75.7,12.2-105.8,32.9L431.4,146.2z"/>
			<path class="st4" d="M383.5,194.1L278.2,88.9c-20.9,30.1-33.1,66.7-33.1,106c0,39,12,75.2,32.5,105.1L383.5,194.1z"/>
		</g>
		<path class="st5" d="M431.4,242L325.3,348.1c30.3,21.1,67,33.5,106.6,33.5C431.4,331.1,431.4,242,431.4,242z"/>
		<path class="st6" d="M479.2,194.1l106.5,106.5c20.8-30.1,32.9-66.5,32.9-105.8C561.2,194.4,479.2,194.1,479.2,194.1z"/>
		<path class="st7" d="M431.4,146.2L537,40.6C507,20.1,470.8,8.1,431.9,8.1C431.6,60.9,431.4,146.2,431.4,146.2z"/>
		<path class="st8" d="M383.5,194.1L278.2,88.9c-20.9,30.1-33.1,66.7-33.1,106C309.9,194.4,383.5,194.1,383.5,194.1z"/>
	</g>
	<g>
		<g>
			<path class="st9" d="M833.5,177.4l125.8-121C926.2,26.4,882.2,8.1,834,8.1c-47,0-90,17.5-122.8,46.2L833.5,177.4z"/>
			<path class="st10" d="M798,237.6l-12.4-12.4L668.8,107.8c-13.8,26-21.6,55.6-21.6,87c0,90.7,64.9,166.4,150.7,183.3L798,237.6
				L798,237.6z"/>
			<path class="st11" d="M881.4,225.3l-11.3,11.3v141.6c85.8-16.9,150.7-92.6,150.7-183.3c0-30.3-7.3-58.9-20.1-84.2L881.4,225.3z"
				/>
		</g>
		<path class="st12" d="M833.5,177.4l125.8-121C926.2,26.4,882.2,8.1,834,8.1C833.5,59.4,833.5,177.4,833.5,177.4z"/>
		<path class="st13" d="M798,237.6l-12.4-12.4L668.8,107.8c-13.8,26-21.6,55.6-21.6,87c0,27.2,5.8,53,16.3,76.3
			C762.9,247.4,798,237.6,798,237.6z"/>
		<path class="st14" d="M870.1,236.6v141.6c60.3-11.9,110.4-52.8,134.7-107.7C903.6,244.4,870.1,236.6,870.1,236.6z"/>
	</g>
</g>
</svg>
