<?xml version="1.0" encoding="utf-8"?>
<!-- Generator: Adobe Illustrator 28.1.0, SVG Export Plug-In . SVG Version: 6.00 Build 0)  -->
<svg version="1.1" id="Livello_1" xmlns="http://www.w3.org/2000/svg" xmlns:xlink="http://www.w3.org/1999/xlink" x="0px" y="0px"
	 viewBox="0 0 500 500" style="enable-background:new 0 0 500 500;" xml:space="preserve">
<style type="text/css">
	.st0{fill:url(#SVGID_1_);}
	.st1{fill:url(#SVGID_00000168111522975276831670000014377654447778200765_);}
	.st2{fill:#FFFFFF;}
</style>
<g>
	<g>
		
			<linearGradient id="SVGID_1_" gradientUnits="userSpaceOnUse" x1="249.747" y1="471.1878" x2="249.747" y2="-173.8095" gradientTransform="matrix(1 0 0 -1 0 500)">
			<stop  offset="0" style="stop-color:#FF1C3D"/>
			<stop  offset="1" style="stop-color:#D41128"/>
		</linearGradient>
		<path class="st0" d="M478.4,335.2c2.5-3.1,3.9-7,6.7-10c0,0,0.1,0,0.1-0.1c8.7-27.3,13-56.6,11.5-87.1
			C490.9,110.6,387,7.5,259.6,2.6C118.5-2.9,2.5,109.8,2.5,249.6c0,128.1,97.5,233.5,222.3,246c6.5,0.7,13.1-0.8,18.7-4.2
			c40.4-24.9,204.3-133.1,234.9-156C478.3,335.3,478.3,335.2,478.4,335.2z"/>
		<g>
			
				<linearGradient id="SVGID_00000154393983949496969060000001900552033778657951_" gradientUnits="userSpaceOnUse" x1="358.105" y1="54.8049" x2="314.5599" y2="135.6743" gradientTransform="matrix(1 0 0 -1 0 500)">
				<stop  offset="0" style="stop-color:#7B0612"/>
				<stop  offset="0.9935" style="stop-color:#D9122A"/>
			</linearGradient>
			<path style="fill:url(#SVGID_00000154393983949496969060000001900552033778657951_);" d="M485.9,322.8
				c-4.7,7.9-13.8,8.8-21.6,8.7c-8.8-0.2-17.6,0.2-26.4,1.2c-17.8,1.9-35.3,5.7-52.2,11.4c-16.5,5.5-32.5,12.9-47.5,21.8
				c-14.8,8.8-28.7,19.2-41.4,30.9c-12.7,11.7-24.1,24.7-34.1,38.7c-8.4,11.9-15.8,24.5-22,37.6c-1.9,4.1-7.9,9.6-12.6,12.4
				c-19.7,11.5-30.1,5.2-40,3.7c26.1,9.5,43.1,7,43.1,7c25.5-1.6,92.3-38.5,146.5-75.4c36.4-24.8,66.4-50.5,90.6-74.1
				c3.2-2.9,5.9-5.6,8.1-8C482.6,331.9,485.9,322.8,485.9,322.8z"/>
		</g>
	</g>
	<g>
		<g>
			<g>
				<g>
					<path class="st2" d="M74.6,250.8H62.5v28.7H43v-80h31.6c19.6,0,29.4,11.1,29.4,25.8C104,238.5,95,250.8,74.6,250.8z
						 M73.1,235.3c7.8,0,11.1-3.9,11.1-10s-3.3-10-11.1-10H62.5v20.1h10.6V235.3z"/>
					<path class="st2" d="M146.9,199.5c19.6,0,29.4,11.3,29.4,25.2c0,10-5.5,19.5-17.8,23.1l18.5,31.7h-22l-16.6-30.2h-4.7v30.2
						h-19.5v-80H146.9z M145.7,215.7h-12.1v19.8h12.1c7.3,0,10.7-3.8,10.7-10C156.4,219.6,153,215.7,145.7,215.7z"/>
					<path class="st2" d="M226.3,280.3c-22.7,0-41.1-17-41.1-41s18.5-40.9,41.1-40.9c22.8,0,40.9,16.9,40.9,40.9
						C267.2,263.4,249,280.3,226.3,280.3z M226.3,262.6c12.8,0,21.1-9.2,21.1-23.2c0-14.2-8.3-23.2-21.1-23.2
						c-13,0-21.2,9-21.2,23.2C205.1,253.3,213.3,262.6,226.3,262.6z"/>
					<path class="st2" d="M278,199.5h23l22.5,55.4l22.2-55.4h22.9v80h-19.5v-48l-17.9,48h-15.7l-18-48.1v48.1H278V199.5z"/>
					<path class="st2" d="M420.5,280.3c-22.7,0-41.1-17-41.1-41s18.5-40.9,41.1-40.9c22.8,0,40.9,16.9,40.9,40.9
						C461.4,263.4,443.2,280.3,420.5,280.3z M420.5,262.6c12.8,0,21.1-9.2,21.1-23.2c0-14.2-8.3-23.2-21.1-23.2
						c-13,0-21.2,9-21.2,23.2C399.3,253.3,407.5,262.6,420.5,262.6z"/>
				</g>
			</g>
		</g>
	</g>
</g>
</svg>
