<?xml version="1.0" encoding="utf-8"?>
<!-- Generator: Adobe Illustrator 28.1.0, SVG Export Plug-In . SVG Version: 6.00 Build 0)  -->
<svg version="1.1" id="Livello_1" xmlns="http://www.w3.org/2000/svg" xmlns:xlink="http://www.w3.org/1999/xlink" x="0px" y="0px"
	 viewBox="0 0 500 500" style="enable-background:new 0 0 500 500;" xml:space="preserve">
<style type="text/css">
	.st0{fill:url(#SVGID_1_);}
	.st1{fill:url(#SVGID_00000019662179009810858480000015494816203398959520_);}
	.st2{fill:url(#SVGID_00000073687008585874037260000005711488454254642315_);}
	.st3{fill:#FFFFFF;}
</style>
<g>
	<g>
		
			<linearGradient id="SVGID_1_" gradientUnits="userSpaceOnUse" x1="449.4" y1="451.853" x2="449.4" y2="487.3298" gradientTransform="matrix(-1 0 0 1 503.4097 -2.5696)">
			<stop  offset="6.493510e-03" style="stop-color:#D9122A"/>
			<stop  offset="1" style="stop-color:#7B0612"/>
		</linearGradient>
		<path class="st0" d="M11.8,480.2c1.4,0.9,4.6,1.6,8.1,1.5c2-0.1,4-0.3,5.5-0.7l74.2-21.6c-0.3,0.1-0.6,0.2-0.8,0.2H8.4v18.6
			L11.8,480.2z"/>
		<g>
			
				<linearGradient id="SVGID_00000013175015436585657090000000198446168758806966_" gradientUnits="userSpaceOnUse" x1="14.7753" y1="57.2498" x2="53.5665" y2="57.2498" gradientTransform="matrix(-1 0 0 1 503.4097 -2.5696)">
				<stop  offset="0" style="stop-color:#7B0612"/>
				<stop  offset="0.9935" style="stop-color:#D9122A"/>
			</linearGradient>
			<path style="fill:url(#SVGID_00000013175015436585657090000000198446168758806966_);" d="M487,18.2c2.8-10.2,1.5-15.3,0-15.8
				c0,0-24.3-0.1-24.3-0.1l0.2,104.7C467.1,93.5,487,18.2,487,18.2z"/>
			
				<linearGradient id="SVGID_00000088845656716222802930000011606407260891949738_" gradientUnits="userSpaceOnUse" x1="282.7303" y1="191.5276" x2="111.6886" y2="475.0352" gradientTransform="matrix(-1 0 0 1 503.4097 -2.5696)">
				<stop  offset="0" style="stop-color:#FF1C3D"/>
				<stop  offset="1" style="stop-color:#D41128"/>
			</linearGradient>
			<path style="fill:url(#SVGID_00000088845656716222802930000011606407260891949738_);" d="M28.9,492.6c54.4,0,198.2,0.1,198.2,0.1
				c15.3,0,30-6.1,40.9-16.9L481.8,262c10.8-10.9,16.9-25.6,16.9-40.9c0,0,0-168.2,0-209.6c0-5-4.1-9.1-9.1-9.1h-8c0.1,0,1,0,1,0.1
				c9.4,1.9,5.1,10.6,1.4,14.5l-75.6,75.9h-0.1c-103,102.8-205.9,205.7-308.8,308.6l-74.2,77.6c-1.5,1.6-3.5,2.4-5.5,2.6
				c-3.5,0.3-6.7-2.1-8.1-5.3l-3.4-7.2v3C8.4,483.4,17.6,492.6,28.9,492.6z"/>
		</g>
	</g>
	<g>
		<g>
			<g>
				<path class="st3" d="M221.9,412.7l-7.4,7.3l17.3,17.6l-12,11.7l-48.1-49.1l19.4-19c12-11.8,24.7-10.9,33.5-1.9
					C232.5,387.5,234.4,400.4,221.9,412.7z M211.6,404.1c4.8-4.7,4.5-9,0.8-12.8s-8.1-4.2-12.8,0.5l-6.5,6.4l12.1,12.3L211.6,404.1z
					"/>
				<path class="st3" d="M235.4,337.8c12-11.8,24.8-10.7,33.2-2.2c6,6.2,8.4,15.2,3,24.9l30.4,8.3L288.5,382l-28.4-8.5l-2.9,2.8
					l18.1,18.5l-12,11.7l-48.1-49.1L235.4,337.8z M244.4,348.4l-7.4,7.3l11.9,12.2l7.4-7.3c4.5-4.4,4.3-8.7,0.5-12.6
					C253.3,344.4,248.9,344.1,244.4,348.4z"/>
				<path class="st3" d="M332.7,339.7c-13.9,13.6-35.4,14.3-49.9-0.5c-14.5-14.8-13.3-36.2,0.7-49.8c14-13.7,35.2-14.2,49.7,0.5
					C347.7,304.6,346.6,326.1,332.7,339.7z M322,328.8c7.8-7.7,7.4-18.3-1-26.9c-8.6-8.7-19.1-9.3-26.9-1.6c-8,7.8-7.6,18.3,1,27
					C303.4,335.8,314,336.6,322,328.8z"/>
				<path class="st3" d="M315.9,259l14.1-13.8l47,20.5l-19.6-47.3l14.1-13.8l48.1,49.1l-12,11.7L378.8,236l17.8,40.2l-9.6,9.4
					l-39.9-18.7l28.9,29.5l-12,11.7L315.9,259z"/>
				<path class="st3" d="M451.8,223c-13.9,13.6-35.4,14.3-49.9-0.5s-13.3-36.2,0.7-49.8c14-13.7,35.2-14.2,49.7,0.5
					C466.8,187.9,465.7,209.4,451.8,223z M441.1,212.1c7.8-7.7,7.4-18.3-1-26.9c-8.6-8.7-19.1-9.3-26.9-1.6c-8,7.8-7.6,18.3,1,27
					C422.6,219.2,433.1,219.9,441.1,212.1z"/>
			</g>
		</g>
	</g>
</g>
</svg>
