<?xml version="1.0" encoding="utf-8"?>
<!-- Generator: Adobe Illustrator 28.1.0, SVG Export Plug-In . SVG Version: 6.00 Build 0)  -->
<svg version="1.1" id="Livello_1" xmlns="http://www.w3.org/2000/svg" xmlns:xlink="http://www.w3.org/1999/xlink" x="0px" y="0px"
	 viewBox="0 0 286 500" style="enable-background:new 0 0 286 500;" xml:space="preserve">
<style type="text/css">
	.st0{fill:url(#SVGID_1_);}
	.st1{fill:url(#SVGID_00000074435746124896641220000007473648313490483339_);}
	.st2{fill:#FFFFFF;}
</style>
<g>
	<g>
		
			<linearGradient id="SVGID_1_" gradientUnits="userSpaceOnUse" x1="39.4" y1="500.7841" x2="39.4" y2="448.5844" gradientTransform="matrix(1 0 0 -1 0 500)">
			<stop  offset="0" style="stop-color:#7B0612"/>
			<stop  offset="0.9935" style="stop-color:#D9122A"/>
		</linearGradient>
		<path class="st0" d="M79,33.5H-0.2V7c0-3.1,2.5-5.6,5.6-5.6H79V33.5z"/>
		
			<linearGradient id="SVGID_00000044878292170033658730000008612231402821168514_" gradientUnits="userSpaceOnUse" x1="151.1" y1="464.3544" x2="151.1" y2="113.1486" gradientTransform="matrix(1 0 0 -1 0 500)">
			<stop  offset="0" style="stop-color:#FF1C3D"/>
			<stop  offset="1" style="stop-color:#D41128"/>
		</linearGradient>
		<path style="fill:url(#SVGID_00000044878292170033658730000008612231402821168514_);" d="M261.8,1.5c11.7,0,21.2,9.5,21.2,21.2
			v380.6c0,6.9-3.3,13.4-8.8,17.5l-97.4,72.8c-7.6,5.7-18.1,5.8-25.9,0.2l-101.6-73c-5.7-4.1-9.1-10.7-9.1-17.8V91.6L40.4,23
			c0-11.7-9.5-21.2-21.2-21.2L261.8,1.5z"/>
	</g>
	<g>
		<g>
			<g>
				<path class="st2" d="M172.6,384.5v11h26.3v17.8h-73.2v-28.9c0-17.9,10.1-26.9,23.6-26.9C161.4,357.6,172.6,365.9,172.6,384.5z
					 M158.4,385.9c0-7.1-3.5-10.1-9.2-10.1s-9.2,3-9.2,10.1v9.7h18.3L158.4,385.9L158.4,385.9z"/>
				<path class="st2" d="M125.7,318.4c0-17.9,10.3-26.9,23-26.9c9.2,0,17.8,5,21.2,16.3l29-16.9V311l-27.6,15.2v4.3h27.6v17.8h-73.2
					V318.4z M140.5,319.5v11h18.1v-11c0-6.7-3.4-9.8-9.2-9.8C144.1,309.7,140.5,312.8,140.5,319.5z"/>
				<path class="st2" d="M199.6,245.8c0,20.7-15.5,37.6-37.5,37.6s-37.4-16.9-37.4-37.6c0-20.8,15.4-37.4,37.4-37.4
					S199.6,225.1,199.6,245.8z M183.4,245.8c0-11.7-8.4-19.3-21.3-19.3c-13,0-21.3,7.6-21.3,19.3c0,11.9,8.2,19.4,21.3,19.4
					C174.9,265.2,183.4,257.7,183.4,245.8z"/>
				<path class="st2" d="M125.7,198.5v-21.1l50.7-20.5l-50.7-20.3v-20.9h73.2v17.8H155l43.9,16.4v14.4l-44,16.5h44v17.8L125.7,198.5
					L125.7,198.5z"/>
				<path class="st2" d="M199.6,68.2c0,20.7-15.5,37.6-37.5,37.6s-37.4-16.9-37.4-37.6c0-20.8,15.4-37.4,37.4-37.4
					C184.1,30.8,199.6,47.5,199.6,68.2z M183.4,68.2c0-11.7-8.4-19.3-21.3-19.3c-13,0-21.3,7.6-21.3,19.3c0,11.9,8.2,19.4,21.3,19.4
					C174.9,87.6,183.4,80.1,183.4,68.2z"/>
			</g>
		</g>
	</g>
</g>
</svg>
