<?xml version="1.0" encoding="utf-8"?>
<!-- Generator: Adobe Illustrator 28.1.0, SVG Export Plug-In . SVG Version: 6.00 Build 0)  -->
<svg version="1.1" id="Livello_1" xmlns="http://www.w3.org/2000/svg" xmlns:xlink="http://www.w3.org/1999/xlink" x="0px" y="0px"
	 viewBox="0 0 500 500" style="enable-background:new 0 0 500 500;" xml:space="preserve">
<style type="text/css">
	.st0{fill:url(#SVGID_1_);}
	.st1{fill:#FFFFFF;}
</style>
<g>
	
		<linearGradient id="SVGID_1_" gradientUnits="userSpaceOnUse" x1="249.7" y1="460.2558" x2="249.7" y2="2.2712" gradientTransform="matrix(1 0 0 -1 0 500)">
		<stop  offset="0" style="stop-color:#FF1C3D"/>
		<stop  offset="1" style="stop-color:#D41128"/>
	</linearGradient>
	<path class="st0" d="M3.2,251.1c0-25.2,29.8-45.3,37.1-68.1c7.6-23.5-4.3-57.3,9.9-76.9c14.4-19.8,50.3-18.8,70.1-33.2
		c19.6-14.3,29.6-48.8,53.2-56.4c22.7-7.4,51,14.4,76.2,14.4s53.5-21.8,76.2-14.4c23.5,7.6,33.6,42.2,53.2,56.4
		c19.8,14.4,55.7,13.4,70.1,33.2c14.3,19.6,2.3,53.4,9.9,76.9c7.4,22.7,37.1,42.9,37.1,68.1s-29.8,45.3-37.1,68.1
		c-7.6,23.5,4.3,57.3-9.9,76.9c-14.4,19.8-50.3,18.8-70.1,33.2c-19.6,14.3-29.6,48.8-53.2,56.4c-22.7,7.4-51-14.4-76.2-14.4
		s-53.5,21.8-76.2,14.4c-23.5-7.6-33.6-42.2-53.2-56.4c-19.8-14.4-55.7-13.4-70.1-33.2c-14.3-19.6-2.3-53.4-9.9-76.9
		C33,296.5,3.2,276.3,3.2,251.1z"/>
	<g>
		<g>
			<g>
				<g>
					<path class="st1" d="M99.9,258.3H89.5V283H72.7v-69h27.2c16.9,0,25.4,9.5,25.4,22.2C125.3,247.6,117.5,258.3,99.9,258.3z
						 M98.6,244.9c6.7,0,9.5-3.3,9.5-8.7c0-5.3-2.9-8.7-9.5-8.7h-9.1v17.3L98.6,244.9L98.6,244.9z"/>
					<path class="st1" d="M162.3,214c16.9,0,25.4,9.7,25.4,21.7c0,8.7-4.7,16.8-15.3,20l15.9,27.3h-19l-14.4-26h-4v26H134v-69H162.3
						z M161.3,228h-10.4v17.1h10.4c6.3,0,9.2-3.2,9.2-8.7C170.5,231.3,167.6,228,161.3,228z"/>
					<path class="st1" d="M230.8,283.7c-19.6,0-35.5-14.7-35.5-35.4c0-20.8,15.9-35.3,35.5-35.3c19.7,0,35.3,14.6,35.3,35.3
						C266.2,269.1,250.4,283.7,230.8,283.7z M230.8,268.4c11,0,18.2-8,18.2-20.1c0-12.3-7.2-20.1-18.2-20.1
						c-11.2,0-18.3,7.8-18.3,20.1C212.5,260.4,219.6,268.4,230.8,268.4z"/>
					<path class="st1" d="M275.5,214h19.9l19.4,47.8L334,214h19.8v69H337v-41.4L321.5,283h-13.6l-15.5-41.5V283h-16.8v-69H275.5z"/>
					<path class="st1" d="M398.5,283.7c-19.6,0-35.5-14.7-35.5-35.4c0-20.8,15.9-35.3,35.5-35.3c19.7,0,35.3,14.6,35.3,35.3
						C433.8,269.1,418.1,283.7,398.5,283.7z M398.5,268.4c11,0,18.2-8,18.2-20.1c0-12.3-7.2-20.1-18.2-20.1
						c-11.2,0-18.3,7.8-18.3,20.1C380.2,260.4,387.3,268.4,398.5,268.4z"/>
				</g>
			</g>
		</g>
	</g>
</g>
</svg>
